<svg width="171" height="52" viewBox="0 0 171 52" fill="none" xmlns="http://www.w3.org/2000/svg">
<path d="M26 52V39C18.8139 39 13 33.1861 13 26H0C0 40.3722 11.6278 52 26 52Z" fill="#0071FF"/>
<path d="M26 52V39C33.1861 39 39 33.1861 39 26H52C52 40.3722 40.3722 52 26 52Z" fill="#142438"/>
<path d="M39 0V13C46.1861 13 52 18.8139 52 26H65C65 11.6278 53.3722 0 39 0Z" fill="#0071FF"/>
<path d="M39 0V13C31.8139 13 26 18.8139 26 26H13C13 11.6278 24.6278 0 39 0Z" fill="#142438"/>
<path d="M104.747 35.5329C103.852 35.5329 102.957 35.5015 102.062 35.4387C101.183 35.3916 100.265 35.266 99.3071 35.0619V19.2382C100.061 19.0969 100.885 18.9949 101.78 18.9321C102.674 18.8536 103.506 18.8144 104.276 18.8144C105.312 18.8144 106.261 18.8929 107.125 19.0498C108.004 19.1911 108.757 19.4423 109.385 19.8034C110.013 20.1644 110.5 20.6432 110.845 21.2397C111.206 21.8206 111.387 22.5427 111.387 23.4061C111.387 24.709 110.759 25.7372 109.503 26.4907C110.539 26.8832 111.246 27.4169 111.622 28.092C111.999 28.767 112.187 29.5283 112.187 30.376C112.187 32.0871 111.56 33.3744 110.304 34.2378C109.064 35.1012 107.211 35.5329 104.747 35.5329ZM102.886 28.2097V32.4246C103.153 32.456 103.444 32.4796 103.758 32.4953C104.072 32.511 104.417 32.5188 104.794 32.5188C105.892 32.5188 106.779 32.3618 107.454 32.0479C108.129 31.7339 108.467 31.1531 108.467 30.3054C108.467 29.5519 108.184 29.0181 107.619 28.7042C107.054 28.3745 106.246 28.2097 105.194 28.2097H102.886ZM102.886 25.4076H104.676C105.806 25.4076 106.615 25.2663 107.101 24.9837C107.588 24.6855 107.831 24.2145 107.831 23.5709C107.831 22.9116 107.58 22.4485 107.078 22.1816C106.575 21.9148 105.838 21.7813 104.864 21.7813C104.55 21.7813 104.213 21.7892 103.852 21.8049C103.491 21.8049 103.169 21.8206 102.886 21.852V25.4076Z" fill="#0071FF"/>
<path d="M122.357 26.0434C122.043 25.9649 121.674 25.8864 121.25 25.8079C120.826 25.7137 120.371 25.6666 119.884 25.6666C119.665 25.6666 119.398 25.6901 119.084 25.7372C118.786 25.7686 118.558 25.8079 118.401 25.855V35.3209H114.892V23.5944C115.52 23.3747 116.258 23.1706 117.106 22.9822C117.969 22.7781 118.927 22.6761 119.979 22.6761C120.167 22.6761 120.395 22.6918 120.661 22.7232C120.928 22.7389 121.195 22.7703 121.462 22.8174C121.729 22.8488 121.996 22.8959 122.263 22.9587C122.529 23.0058 122.757 23.0686 122.945 23.1471L122.357 26.0434Z" fill="#0071FF"/>
<path d="M128.335 35.3209H124.826V22.9351H128.335V35.3209ZM128.665 19.356C128.665 19.9996 128.453 20.5098 128.029 20.8865C127.621 21.2476 127.134 21.4281 126.569 21.4281C126.004 21.4281 125.509 21.2476 125.085 20.8865C124.677 20.5098 124.473 19.9996 124.473 19.356C124.473 18.7123 124.677 18.21 125.085 17.8489C125.509 17.4722 126.004 17.2838 126.569 17.2838C127.134 17.2838 127.621 17.4722 128.029 17.8489C128.453 18.21 128.665 18.7123 128.665 19.356Z" fill="#0071FF"/>
<path d="M134.623 29.0338C134.623 30.117 134.867 30.9883 135.353 31.6476C135.84 32.3069 136.562 32.6366 137.52 32.6366C137.834 32.6366 138.124 32.6287 138.391 32.613C138.658 32.5816 138.878 32.5502 139.05 32.5188V26.1375C138.831 25.9963 138.54 25.8785 138.179 25.7843C137.834 25.6901 137.48 25.6431 137.119 25.6431C135.455 25.6431 134.623 26.7733 134.623 29.0338ZM142.559 34.9206C142.245 35.0148 141.884 35.109 141.476 35.2032C141.067 35.2817 140.636 35.3523 140.181 35.4151C139.741 35.4779 139.286 35.525 138.815 35.5564C138.36 35.6035 137.92 35.627 137.496 35.627C136.476 35.627 135.565 35.4779 134.765 35.1796C133.964 34.8814 133.289 34.4575 132.74 33.9081C132.19 33.343 131.766 32.668 131.468 31.883C131.186 31.0824 131.044 30.1877 131.044 29.1987C131.044 28.194 131.17 27.2914 131.421 26.4907C131.672 25.6744 132.033 24.9837 132.504 24.4186C132.975 23.8535 133.548 23.4218 134.223 23.1235C134.914 22.8252 135.699 22.6761 136.578 22.6761C137.064 22.6761 137.496 22.7232 137.873 22.8174C138.265 22.9116 138.658 23.045 139.05 23.2177V17.6135L142.559 17.0483V34.9206Z" fill="#0071FF"/>
<path d="M148.834 28.7277C148.834 30.69 149.627 31.6711 151.213 31.6711C151.574 31.6711 151.911 31.624 152.225 31.5298C152.539 31.4357 152.806 31.3258 153.026 31.2002V25.596C152.853 25.5646 152.649 25.541 152.414 25.5253C152.178 25.4939 151.903 25.4782 151.59 25.4782C150.663 25.4782 149.973 25.7843 149.517 26.3966C149.062 27.0088 148.834 27.7858 148.834 28.7277ZM156.534 33.7668C156.534 35.7919 156.016 37.291 154.98 38.2643C153.96 39.2533 152.374 39.7478 150.224 39.7478C149.47 39.7478 148.717 39.6772 147.963 39.5359C147.21 39.4103 146.511 39.2376 145.868 39.0178L146.48 36.0744C147.029 36.2942 147.602 36.4669 148.199 36.5925C148.811 36.7181 149.502 36.7809 150.271 36.7809C151.276 36.7809 151.982 36.5611 152.39 36.1215C152.814 35.682 153.026 35.1169 153.026 34.4261V33.9787C152.649 34.1514 152.257 34.2849 151.849 34.379C151.456 34.4575 151.024 34.4968 150.553 34.4968C148.842 34.4968 147.532 33.9944 146.621 32.9898C145.711 31.9694 145.255 30.5487 145.255 28.7277C145.255 27.8172 145.397 26.9931 145.679 26.2553C145.962 25.5018 146.37 24.8581 146.904 24.3244C147.453 23.7907 148.12 23.3825 148.905 23.1C149.69 22.8017 150.577 22.6526 151.566 22.6526C151.99 22.6526 152.422 22.6761 152.861 22.7232C153.316 22.7546 153.764 22.8017 154.203 22.8645C154.643 22.9273 155.059 23.0058 155.451 23.1C155.859 23.1784 156.22 23.2648 156.534 23.359V33.7668Z" fill="#0071FF"/>
<path d="M159.236 29.2222C159.236 28.1234 159.401 27.1658 159.731 26.3495C160.076 25.5175 160.524 24.8267 161.073 24.2773C161.623 23.7279 162.25 23.3119 162.957 23.0293C163.679 22.7468 164.417 22.6055 165.17 22.6055C166.929 22.6055 168.318 23.1471 169.338 24.2302C170.359 25.2977 170.869 26.8754 170.869 28.9632C170.869 29.1673 170.861 29.3949 170.845 29.6461C170.83 29.8815 170.814 30.0935 170.798 30.2818H162.839C162.918 31.004 163.255 31.5769 163.852 32.0008C164.448 32.4246 165.249 32.6366 166.254 32.6366C166.897 32.6366 167.525 32.5816 168.137 32.4717C168.765 32.3461 169.275 32.197 169.668 32.0243L170.139 34.8735C169.95 34.9677 169.699 35.0619 169.385 35.1561C169.071 35.2503 168.718 35.3288 168.326 35.3916C167.949 35.4701 167.541 35.5329 167.101 35.58C166.662 35.627 166.222 35.6506 165.783 35.6506C164.668 35.6506 163.695 35.4858 162.863 35.1561C162.046 34.8264 161.364 34.379 160.814 33.8139C160.28 33.2331 159.88 32.5502 159.613 31.7653C159.362 30.9804 159.236 30.1327 159.236 29.2222ZM167.478 27.88C167.462 27.5818 167.407 27.2914 167.313 27.0088C167.235 26.7262 167.101 26.4751 166.913 26.2553C166.74 26.0355 166.513 25.855 166.23 25.7137C165.963 25.5724 165.626 25.5018 165.217 25.5018C164.825 25.5018 164.487 25.5724 164.205 25.7137C163.922 25.8393 163.687 26.012 163.498 26.2317C163.31 26.4515 163.161 26.7105 163.051 27.0088C162.957 27.2914 162.886 27.5818 162.839 27.88H167.478Z" fill="#0071FF"/>
<path d="M91.8819 35.424C91.7075 34.8467 91.5093 34.2533 91.2874 33.644C91.0813 33.0346 90.8752 32.4252 90.6691 31.8158H84.2483C84.0422 32.4252 83.8282 33.0346 83.6063 33.644C83.4002 34.2533 83.2099 34.8467 83.0355 35.424H79.1831C79.8014 33.6279 80.388 31.9681 80.9429 30.4446C81.4977 28.9212 82.0368 27.4859 82.5599 26.1388C83.099 24.7917 83.6221 23.5168 84.1294 22.314C84.6526 21.0953 85.1916 19.9085 85.7465 18.7539H89.2898C89.8288 19.9085 90.3599 21.0953 90.8831 22.314C91.4063 23.5168 91.9294 24.7917 92.4526 26.1388C92.9916 27.4859 93.5386 28.9212 94.0935 30.4446C94.6483 31.9681 95.2349 33.6279 95.8532 35.424H91.8819ZM87.4349 22.5305C87.3557 22.7711 87.2368 23.0998 87.0782 23.5168C86.9197 23.9337 86.7374 24.4149 86.5313 24.9601C86.3252 25.5053 86.0953 26.1067 85.8416 26.7642C85.6038 27.4217 85.3581 28.1113 85.1044 28.833H89.7892C89.5355 28.1113 89.2898 27.4217 89.052 26.7642C88.8142 26.1067 88.5843 25.5053 88.3624 24.9601C88.1563 24.4149 87.974 23.9337 87.8154 23.5168C87.6569 23.0998 87.5301 22.7711 87.4349 22.5305Z" fill="#142438"/>
</svg>
