<svg width="104" height="38" viewBox="0 0 104 38" fill="none" xmlns="http://www.w3.org/2000/svg">
<path d="M18.7738 37.5473V28.1604C13.585 28.1604 9.38691 23.9623 9.38691 18.7734H0C0 29.1512 8.39607 37.5473 18.7738 37.5473Z" fill="#0071FF"/>
<path d="M18.7734 37.5473V28.1604C23.9623 28.1604 28.1604 23.9623 28.1604 18.7734H37.5473C37.5473 29.1512 29.1512 37.5473 18.7734 37.5473Z" fill="white"/>
<path d="M28.1602 0V9.38691C33.349 9.38691 37.5471 13.585 37.5471 18.7738H46.934C46.934 8.39607 38.5379 0 28.1602 0Z" fill="#0071FF"/>
<path d="M28 0V9.5C22.7486 9.5 18.5 13.7486 18.5 19H9C9 8.49722 17.4972 0 28 0Z" fill="white"/>
<path d="M55.9525 25.8434C55.3023 25.8434 54.6521 25.8198 54.0019 25.7728C53.3631 25.7376 52.6958 25.6435 52 25.4907V13.64C52.5475 13.5342 53.1464 13.4578 53.7966 13.4108C54.4468 13.352 55.0514 13.3226 55.6103 13.3226C56.3632 13.3226 57.0533 13.3814 57.6807 13.499C58.3195 13.6048 58.867 13.7929 59.3233 14.0633C59.7796 14.3337 60.1332 14.6923 60.3841 15.139C60.6465 15.574 60.7777 16.1148 60.7777 16.7614C60.7777 17.7372 60.3214 18.5073 59.4088 19.0716C60.1617 19.3655 60.675 19.7652 60.9488 20.2707C61.2225 20.7763 61.3594 21.3465 61.3594 21.9813C61.3594 23.2628 60.9031 24.2268 59.9906 24.8734C59.0894 25.5201 57.7434 25.8434 55.9525 25.8434ZM54.6008 20.3589V23.5156C54.7947 23.5391 55.0057 23.5567 55.2339 23.5685C55.462 23.5802 55.713 23.5861 55.9867 23.5861C56.7852 23.5861 57.4297 23.4685 57.9202 23.2334C58.4107 22.9983 58.656 22.5633 58.656 21.9284C58.656 21.3641 58.4506 20.9644 58.04 20.7293C57.6293 20.4824 57.0419 20.3589 56.2776 20.3589H54.6008ZM54.6008 18.2604H55.9012C56.7225 18.2604 57.3099 18.1546 57.6636 17.9429C58.0172 17.7196 58.194 17.3669 58.194 16.8849C58.194 16.3911 58.0115 16.0443 57.6464 15.8444C57.2814 15.6445 56.7453 15.5446 56.0381 15.5446C55.8099 15.5446 55.5647 15.5505 55.3023 15.5622C55.04 15.5622 54.8061 15.574 54.6008 15.5975V18.2604Z" fill="white"/>
<path d="M68.749 18.7365C68.5209 18.6777 68.2528 18.6189 67.9448 18.5602C67.6368 18.4896 67.306 18.4544 66.9524 18.4544C66.7927 18.4544 66.5988 18.472 66.3706 18.5073C66.1539 18.5308 65.9885 18.5602 65.8744 18.5954V25.6846H63.325V16.9025C63.7813 16.7379 64.3174 16.5851 64.9334 16.444C65.5607 16.2911 66.2566 16.2147 67.0208 16.2147C67.1577 16.2147 67.3231 16.2265 67.517 16.25C67.711 16.2618 67.9049 16.2853 68.0988 16.3205C68.2927 16.3441 68.4866 16.3793 68.6806 16.4263C68.8745 16.4616 69.0399 16.5086 69.1768 16.5674L68.749 18.7365Z" fill="white"/>
<path d="M73.0929 25.6846H70.5435V16.4087H73.0929V25.6846ZM73.3325 13.7282C73.3325 14.2102 73.1785 14.5923 72.8705 14.8745C72.5739 15.1449 72.2203 15.2801 71.8096 15.2801C71.399 15.2801 71.0397 15.1449 70.7317 14.8745C70.4351 14.5923 70.2868 14.2102 70.2868 13.7282C70.2868 13.2462 70.4351 12.87 70.7317 12.5996C71.0397 12.3174 71.399 12.1763 71.8096 12.1763C72.2203 12.1763 72.5739 12.3174 72.8705 12.5996C73.1785 12.87 73.3325 13.2462 73.3325 13.7282Z" fill="white"/>
<path d="M77.6625 20.9761C77.6625 21.7873 77.8393 22.4398 78.1929 22.9336C78.5465 23.4274 79.0712 23.6743 79.7671 23.6743C79.9952 23.6743 80.2062 23.6684 80.4001 23.6566C80.5941 23.6331 80.7538 23.6096 80.8792 23.5861V18.8071C80.7195 18.7012 80.5085 18.6131 80.2461 18.5425C79.9952 18.472 79.7385 18.4367 79.4762 18.4367C78.267 18.4367 77.6625 19.2832 77.6625 20.9761ZM83.4287 25.3849C83.2006 25.4554 82.9382 25.5259 82.6416 25.5965C82.345 25.6553 82.0313 25.7082 81.7005 25.7552C81.3811 25.8022 81.0503 25.8375 80.7081 25.861C80.3773 25.8963 80.0579 25.9139 79.7499 25.9139C79.0085 25.9139 78.3469 25.8022 77.7651 25.5788C77.1834 25.3555 76.6929 25.038 76.2936 24.6266C75.8944 24.2033 75.5864 23.6978 75.3697 23.11C75.1643 22.5104 75.0617 21.8402 75.0617 21.0996C75.0617 20.3472 75.1529 19.6712 75.3354 19.0716C75.518 18.4602 75.7803 17.9429 76.1225 17.5197C76.4647 17.0965 76.8811 16.7732 77.3716 16.5498C77.8735 16.3264 78.4438 16.2147 79.0826 16.2147C79.4363 16.2147 79.7499 16.25 80.0237 16.3205C80.3089 16.3911 80.5941 16.491 80.8792 16.6203V12.4232L83.4287 12V25.3849Z" fill="white"/>
<path d="M87.9889 20.7469C87.9889 22.2165 88.5649 22.9512 89.717 22.9512C89.9794 22.9512 90.2247 22.916 90.4528 22.8454C90.6809 22.7749 90.8749 22.6926 91.0346 22.5985V18.4015C90.9091 18.3779 90.7608 18.3603 90.5897 18.3485C90.4186 18.325 90.219 18.3133 89.9908 18.3133C89.3178 18.3133 88.8159 18.5425 88.4851 19.001C88.1543 19.4595 87.9889 20.0415 87.9889 20.7469ZM93.584 24.5207C93.584 26.0373 93.2076 27.1601 92.4547 27.889C91.7133 28.6297 90.5612 29 88.9984 29C88.4509 29 87.9033 28.9471 87.3558 28.8413C86.8083 28.7472 86.3007 28.6179 85.833 28.4533L86.2778 26.249C86.6771 26.4136 87.0934 26.5429 87.5269 26.6369C87.9718 26.731 88.4737 26.778 89.0326 26.778C89.7627 26.778 90.276 26.6134 90.5726 26.2842C90.8806 25.955 91.0346 25.5318 91.0346 25.0145V24.6795C90.7608 24.8088 90.4756 24.9087 90.179 24.9793C89.8939 25.038 89.5802 25.0674 89.238 25.0674C87.9946 25.0674 87.0421 24.6912 86.3805 23.9388C85.7189 23.1746 85.3881 22.1107 85.3881 20.7469C85.3881 20.065 85.4908 19.4478 85.6961 18.8952C85.9014 18.3309 86.198 17.8489 86.5858 17.4492C86.9851 17.0494 87.4699 16.7438 88.0402 16.5322C88.6106 16.3088 89.2551 16.1971 89.9737 16.1971C90.2817 16.1971 90.5954 16.2147 90.9148 16.25C91.2456 16.2735 91.5707 16.3088 91.8901 16.3558C92.2095 16.4028 92.5118 16.4616 92.7969 16.5322C93.0935 16.5909 93.3559 16.6556 93.584 16.7261V24.5207Z" fill="white"/>
<path d="M95.5474 21.1172C95.5474 20.2943 95.6672 19.5771 95.9068 18.9658C96.1577 18.3427 96.4828 17.8254 96.8821 17.4139C97.2813 17.0024 97.7376 16.6909 98.2509 16.4793C98.7756 16.2676 99.3117 16.1618 99.8593 16.1618C101.137 16.1618 102.146 16.5674 102.888 17.3786C103.629 18.1781 104 19.3596 104 20.9232C104 21.0761 103.994 21.2465 103.983 21.4346C103.971 21.611 103.96 21.7697 103.949 21.9108H98.1653C98.2224 22.4516 98.4676 22.8807 98.9011 23.1981C99.3345 23.5156 99.9163 23.6743 100.646 23.6743C101.114 23.6743 101.57 23.6331 102.015 23.5508C102.471 23.4568 102.842 23.3451 103.127 23.2158L103.47 25.3496C103.333 25.4201 103.15 25.4907 102.922 25.5612C102.694 25.6317 102.437 25.6905 102.152 25.7376C101.878 25.7963 101.582 25.8434 101.262 25.8786C100.943 25.9139 100.624 25.9315 100.304 25.9315C99.4942 25.9315 98.787 25.8081 98.1824 25.5612C97.5893 25.3143 97.0931 24.9793 96.6938 24.556C96.306 24.121 96.0151 23.6096 95.8212 23.0218C95.6387 22.434 95.5474 21.7991 95.5474 21.1172ZM101.536 20.112C101.525 19.8887 101.485 19.6712 101.416 19.4595C101.359 19.2479 101.262 19.0598 101.125 18.8952C101 18.7306 100.835 18.5954 100.629 18.4896C100.435 18.3838 100.19 18.3309 99.8935 18.3309C99.6083 18.3309 99.3631 18.3838 99.1577 18.4896C98.9524 18.5837 98.7813 18.713 98.6444 18.8776C98.5075 19.0422 98.3992 19.2362 98.3193 19.4595C98.2509 19.6712 98.1996 19.8887 98.1653 20.112H101.536Z" fill="white"/>
</svg>
